<?xml version="1.0" encoding="utf-8"?>
<!-- Generator: Adobe Illustrator 26.2.1, SVG Export Plug-In . SVG Version: 6.00 Build 0)  -->
<svg version="1.1" id="Layer_1" xmlns="http://www.w3.org/2000/svg" xmlns:xlink="http://www.w3.org/1999/xlink" x="0px" y="0px"
	 viewBox="0 0 292 152" style="enable-background:new 0 0 292 152;" xml:space="preserve">
<style type="text/css">
	.st0{fill-rule:evenodd;clip-rule:evenodd;fill:#F7A41D;}
	.st1{fill-rule:evenodd;clip-rule:evenodd;}
	.st2{fill:#F7A41D;}
</style>
<path class="st0" d="M15,0h262c0,30,15,46,15,76s-15,46-15,76H15c0-30-15-46-15-76S15,30,15,0z"/>
<path class="st1" d="M91.7,134h-5l-8.4-18.8V134h-4v-24.9h5.5l7.9,17.8v-17.8H92c0,0,0.1,0.1,0.1,0.2c0,0.1,0,0.2-0.1,0.4
	c-0.1,0.1-0.2,0.4-0.2,0.8V134z M98.1,118c1.9-2,4.3-3,7.1-3c1.2,0,2.2,0.2,3.2,0.4c0.9,0.3,1.7,0.8,2.4,1.4
	c0.6,0.6,1.1,1.4,1.5,2.4c0.4,1,0.5,2.1,0.5,3.4V134h-4.3v-1.7c-0.7,0.7-1.5,1.2-2.5,1.6c-1,0.4-1.9,0.6-2.9,0.6
	c-1.1,0-2-0.2-2.8-0.4c-0.7-0.3-1.4-0.6-2-1.2c-0.5-0.5-0.9-1.1-1.1-1.8c-0.3-0.7-0.4-1.4-0.4-2.1c0-1,0.2-1.8,0.6-2.6
	c0.4-0.8,1-1.5,1.8-2.1c0.8-0.6,1.8-1,3-1.4c1.2-0.3,2.5-0.5,4-0.5h2.4c0-1.4-0.3-2.4-0.9-3.1c-0.5-0.6-1.4-1-2.6-1
	c-1.5,0-3.1,0.8-4.6,2.5L98.1,118L98.1,118z M106.9,125.8c-1.2,0-2.2,0-2.9,0.2c-0.8,0.2-1.4,0.4-1.8,0.7s-0.7,0.6-0.9,1
	c-0.2,0.4-0.2,0.8-0.2,1.1c0,0.3,0.1,0.6,0.2,0.9c0.2,0.3,0.4,0.5,0.6,0.7c0.2,0.2,0.5,0.4,0.8,0.5c0.4,0.1,0.7,0.2,1.1,0.2
	c0.6,0,1.2-0.1,1.6-0.3c0.5-0.2,1-0.5,1.3-0.8c0.4-0.3,0.7-0.6,1-1c0.2-0.3,0.4-0.6,0.5-0.8c0.1-0.2,0.2-0.5,0.2-0.8
	c0-0.4,0.1-0.9,0.1-1.5L106.9,125.8L106.9,125.8z M135.9,134h-5l-8.4-18.8V134h-4v-24.9h5.5l7.9,17.8v-17.8h4.3c0,0,0.1,0.1,0.1,0.2
	c0,0.1,0,0.2-0.1,0.4c-0.1,0.1-0.2,0.4-0.2,0.8V134z M155.3,112.1c0.8,1.1,1.5,2.5,2,4.2c0.5,1.7,0.7,3.6,0.7,5.7
	c0,2.2-0.2,4.1-0.7,5.7c-0.5,1.6-1.1,2.9-1.9,4c-0.7,1-1.7,1.8-2.8,2.4c-1.1,0.5-2.2,0.8-3.3,0.8c-1.2,0-2.3-0.3-3.4-0.9
	c-1-0.6-2-1.5-2.7-2.7c-0.8-1.2-1.4-2.5-1.9-4.1s-0.7-3.4-0.7-5.3s0.2-3.7,0.7-5.3c0.4-1.6,1.1-3,1.8-4.2c0.8-1.2,1.7-2.1,2.8-2.7
	c1-0.6,2.1-1,3.3-1c0.7,0,1.3,0.1,1.8,0.2c0.6,0.1,1.1,0.4,1.6,0.6c0.5,0.3,0.9,0.6,1.4,1.1C154.5,111,154.9,111.5,155.3,112.1
	L155.3,112.1z M152.4,114.9c-0.3-0.8-0.8-1.4-1.3-1.8c-0.5-0.5-1.1-0.7-1.8-0.7c-0.6,0-1.2,0.2-1.7,0.6s-1,1-1.4,1.8
	c-0.4,0.7-0.7,1.7-1,2.7c-0.2,1.1-0.4,2.3-0.4,3.6c0,0.2,0,0.5,0,0.8c0,0.2,0,0.6,0,0.8s0,0.6,0,0.8c0,0.3,0,0.5,0.1,0.7
	L152.4,114.9L152.4,114.9z M146.3,128.3c0.3,0.8,0.8,1.4,1.3,1.8c0.5,0.5,1.1,0.7,1.8,0.7c0.6,0,1.2-0.2,1.6-0.6
	c0.6-0.4,1-1,1.4-1.8c0.4-0.7,0.7-1.6,1-2.7s0.4-2.3,0.4-3.6c0-0.2,0-0.5,0-0.8c0-0.3,0-0.6,0-0.9s0-0.6-0.1-0.8c0-0.3,0-0.5,0-0.7
	L146.3,128.3L146.3,128.3z M164,119.4h15v3.6h-15V119.4z M193.2,109.1V134h-4.4v-19.8l-4.3,1.3l-1.1-2.7l6.8-3.6H193.2z
	 M204.3,109.1h6.4c1.1,0,2.1,0.1,2.9,0.2c0.9,0.2,1.6,0.4,2.2,0.7c0.7,0.3,1.2,0.6,1.8,1.1c0.5,0.4,0.9,0.9,1.4,1.5
	c0.8,1.2,1.5,2.5,1.9,4c0.4,1.6,0.6,3.3,0.6,5.2s-0.2,3.6-0.6,5.1c-0.4,1.5-1.1,2.8-2,3.9c-1,1.1-2.1,1.9-3.5,2.4
	c-1.4,0.6-3.2,0.9-5.2,0.9h-6L204.3,109.1L204.3,109.1z M208.6,112.8v17.7h1.5c2.4,0,4.1-0.8,5.2-2.2c1.1-1.5,1.7-3.6,1.7-6.4
	c0-1.4-0.1-2.7-0.4-3.8c-0.2-1.1-0.6-2.1-1.2-2.9c-0.5-0.8-1.2-1.4-2-1.8c-0.8-0.4-1.8-0.6-3-0.6H208.6z M45,30h4v92h-4V30z M73,30
	h4v67h-4V30z M89,30h4v67h-4V30z M51,30h2v92h-2V30z M67,30h2v67h-2V30z M99,30h2v67h-2V30z M105,30h2v67h-2V30z M116.8,30h6.2v67
	h-6.2V30z M126.6,30h4.4v67h-4.4V30z M133,30h6v67h-6V30z M140.6,30h8.4v67h-8.4V30z M164,30h3v67h-3V30z M169,30h6v67h-6V30z
	 M177,30h4v67h-4V30z M191,30h6v67h-6V30z M199,30h4v67h-4V30z M205,30h8v67h-8V30z M215,30h4v67h-4V30z M221,30h4v67h-4V30z
	 M231,30h6v92h-6V30z M243,30h4v92h-4V30z M151,30h2v67h-2V30z M155,30h2v67h-2V30z M159.4,30h4.4v67h-4.4V30z M185,30h2v67h-2V30z
	 M239,30h2v92h-2V30z M111,30h4v67h-4V30z M57,30h6v92h-6V30z M81,30h6v67h-6V30z"/>
<g>
	<polygon class="st2" points="127,54.4 129.1,54.4 135.4,46.8 119.3,46.8 119.3,79.9 123.5,79.9 130.1,72.2 127,72.2 	"/>
	<polygon class="st2" points="171.6,39.1 154.5,46.8 138.9,46.8 132.2,54.4 148.2,54.4 120.4,87.9 137.5,79.9 153.1,79.9 
		159.8,72.2 143.9,72.2 	"/>
	<polygon class="st2" points="168.5,46.8 161.9,54.8 165,54.8 165,72.2 162.9,72.2 156.3,79.9 172.7,79.9 172.7,46.8 	"/>
</g>
</svg>
